<?xml version="1.0" standalone="no"?>
<!DOCTYPE svg PUBLIC "-//W3C//DTD SVG 20010904//EN"
 "http://www.w3.org/TR/2001/REC-SVG-20010904/DTD/svg10.dtd">
<svg version="1.0" xmlns="http://www.w3.org/2000/svg"
 width="612.000000pt" height="612.000000pt" viewBox="0 0 612.000000 612.000000"
 preserveAspectRatio="xMidYMid meet">

<g transform="translate(0.000000,612.000000) scale(0.100000,-0.100000)"
fill="#000000" stroke="none">
<path d="M0 3060 l0 -3060 3060 0 3060 0 0 3060 0 3060 -3060 0 -3060 0 0
-3060z m3801 1261 c231 -60 434 -201 569 -396 59 -86 101 -176 138 -295 24
-78 26 -99 26 -270 1 -198 -6 -240 -61 -380 -92 -230 -293 -437 -515 -532
-142 -60 -206 -72 -398 -72 -162 0 -181 2 -265 28 -150 46 -246 95 -355 186
-418 343 -478 964 -135 1397 141 179 351 304 588 349 100 19 308 11 408 -15z
m-833 -53 c-89 -58 -255 -229 -309 -315 l-44 -73 -380 0 -381 0 -27 -177 c-15
-98 -27 -181 -27 -185 0 -5 99 -8 220 -8 228 0 316 -10 419 -48 l46 -18 6
-144 c13 -280 102 -496 285 -690 l65 -68 -21 -53 c-124 -317 -474 -508 -857
-469 -387 40 -656 266 -728 612 -8 38 -15 87 -15 109 l0 39 233 0 233 0 12
-57 c26 -125 85 -206 182 -252 50 -23 67 -26 175 -26 102 0 127 3 167 22 63
29 141 104 168 160 67 143 38 301 -74 400 -86 76 -95 77 -583 81 -238 2 -433
5 -433 7 0 3 13 94 30 202 16 109 54 367 85 573 30 206 58 385 60 397 l5 23
768 2 c422 2 770 2 775 0 4 -2 -21 -22 -55 -44z m1462 -28 c0 -15 -7 -20 -25
-20 -24 0 -25 -2 -25 -75 0 -68 -2 -75 -20 -75 -18 0 -20 7 -20 75 l0 75 -30
0 c-23 0 -30 4 -30 20 0 18 7 20 75 20 68 0 75 -2 75 -20z m68 -23 c3 -36 4
-37 43 -37 39 0 39 0 39 40 0 33 3 40 20 40 19 0 20 -7 20 -95 0 -88 -1 -95
-20 -95 -17 0 -20 7 -20 40 l0 40 -40 0 -40 0 0 -40 c0 -33 -3 -40 -20 -40
-19 0 -20 7 -20 96 0 86 2 95 18 92 12 -2 18 -14 20 -41z m184 -1312 l54 -140
54 -7 c30 -3 94 -6 143 -7 48 -1 87 -4 87 -8 0 -16 -112 -203 -122 -203 -6 0
-9 -3 -5 -6 11 -12 -99 -148 -213 -263 -100 -101 -263 -231 -290 -231 -6 0
-10 -4 -10 -8 0 -5 -58 -36 -128 -70 -224 -107 -434 -152 -705 -152 -240 0
-406 30 -613 112 -120 47 -309 149 -309 166 0 12 260 368 275 377 4 2 41 -15
83 -39 176 -100 337 -146 533 -153 348 -13 619 96 854 343 115 121 220 302
237 411 3 19 9 31 14 26 4 -4 32 -71 61 -148z"/>
<path d="M3426 3954 c-177 -43 -335 -196 -397 -385 -21 -65 -24 -91 -23 -224
0 -136 3 -156 26 -217 105 -276 359 -428 634 -377 326 60 524 394 449 754 -47
223 -226 411 -433 454 -71 15 -184 13 -256 -5z"/>
<path d="M4611 2652 c-6 -12 -5 -23 5 -37 21 -29 17 -35 -18 -25 -21 7 -36 6
-45 -1 -22 -19 -15 -26 35 -34 26 -4 62 -18 81 -32 27 -21 35 -23 42 -12 13
21 11 25 -15 42 -13 9 -32 39 -42 66 -19 55 -28 61 -43 33z"/>
<path d="M4469 2497 c-19 -12 -34 -30 -34 -39 0 -16 89 -118 103 -118 5 0 13
5 20 12 9 9 7 17 -10 35 -28 30 -15 42 22 21 26 -15 30 -15 44 1 13 15 11 18
-25 39 -21 12 -39 29 -39 37 0 12 -28 35 -43 35 -2 0 -19 -10 -38 -23z m48
-33 c9 -23 -11 -38 -26 -20 -13 16 -7 36 10 36 5 0 12 -7 16 -16z"/>
<path d="M4320 2366 c-9 -12 -7 -28 10 -78 27 -82 33 -90 54 -82 12 5 16 13
12 29 -8 30 18 53 39 35 12 -10 18 -10 30 0 8 7 15 16 15 20 0 10 -123 90
-137 90 -6 0 -16 -7 -23 -14z m59 -50 c8 -9 8 -16 2 -20 -6 -4 -15 3 -21 14
-12 23 2 27 19 6z"/>
<path d="M4176 2269 c-27 -22 -34 -57 -14 -77 7 -7 29 -12 50 -12 43 0 50 -15
13 -32 -29 -13 -34 -38 -7 -38 50 1 87 45 71 88 -7 18 -16 22 -54 22 -48 0
-58 12 -25 30 23 12 27 40 6 40 -7 0 -25 -9 -40 -21z"/>
<path d="M2941 2188 c-42 -52 -48 -64 -35 -71 10 -6 21 -3 33 7 23 21 51 10
51 -19 0 -19 26 -43 35 -33 1 2 5 40 9 84 5 69 4 83 -10 88 -27 10 -30 8 -83
-56z m59 -3 c0 -16 -6 -25 -15 -25 -18 0 -19 4 -3 30 16 26 18 25 18 -5z"/>
<path d="M4585 2208 c-5 -5 -35 -32 -65 -60 -30 -28 -46 -44 -35 -37 10 8 26
21 35 29 8 8 31 27 50 42 19 15 32 29 30 31 -3 3 -9 0 -15 -5z"/>
<path d="M3120 2131 c-24 -83 -25 -93 -3 -89 11 2 21 19 28 48 12 49 19 46 30
-15 7 -44 21 -65 40 -65 13 0 57 138 49 152 -13 21 -33 5 -39 -32 -9 -51 -21
-51 -30 0 -7 39 -27 70 -45 70 -5 0 -18 -31 -30 -69z"/>
<path d="M4010 2189 c-13 -6 -26 -12 -29 -14 -2 -3 9 -38 25 -80 20 -53 33
-75 44 -72 11 2 14 13 12 40 -3 43 9 47 35 11 13 -17 24 -23 36 -18 23 8 22
16 -8 48 -13 14 -22 33 -19 40 3 8 1 24 -6 35 -12 23 -47 27 -90 10z m55 -29
c4 -6 1 -18 -6 -26 -11 -14 -13 -14 -21 0 -15 26 12 51 27 26z"/>
<path d="M3335 2138 c-6 -18 -25 -129 -25 -145 0 -24 29 -14 35 12 18 85 16
84 37 23 15 -43 24 -58 39 -58 20 0 22 6 37 97 9 54 7 63 -14 63 -8 0 -16 -19
-20 -47 l-7 -47 -19 50 c-24 59 -52 83 -63 52z"/>
<path d="M3854 2139 l-31 -9 14 -72 c8 -40 18 -76 21 -80 11 -10 102 14 102
27 0 20 -10 24 -40 15 -22 -6 -30 -5 -34 7 -8 21 -9 20 25 27 41 8 33 32 -10
28 -41 -3 -42 24 0 33 32 7 35 29 3 32 -10 1 -33 -3 -50 -8z"/>
<path d="M3530 2063 c0 -32 -3 -68 -6 -80 -5 -18 -2 -23 14 -23 22 0 32 33 32
111 0 42 -3 49 -20 49 -18 0 -20 -7 -20 -57z"/>
<path d="M3631 2103 c0 -10 13 -47 27 -83 21 -49 32 -65 47 -65 16 0 25 14 42
65 27 83 28 100 4 100 -16 0 -22 -12 -32 -57 -13 -62 -10 -63 -43 20 -15 38
-47 52 -45 20z"/>
<path d="M4409 2073 c-13 -15 -12 -15 9 -4 23 12 28 21 13 21 -5 0 -15 -7 -22
-17z"/>
</g>
</svg>
